solid chasis_bicho
facet normal -1.0 0.0 0.0
  outer loop
    vertex 170.717083764994 121.68630713880155 30.85278901180482
    vertex 170.717083764994 118.68630713880157 22.596815011804818
    vertex 170.717083764994 118.68630713880157 30.85278901180482
  endloop
endfacet
facet normal -1.0 0.0 0.0
  outer loop
    vertex 170.717083764994 118.68630713880157 22.596815011804818
    vertex 170.717083764994 121.68630713880155 30.85278901180482
    vertex 170.717083764994 121.68630713880155 22.596815011804818
  endloop
endfacet
facet normal 1.0 0.0 0.0
  outer loop
    vertex 171.717083764994 122.88630713880156 45.41943201180483
    vertex 171.717083764994 122.08630713880156 46.21943201180483
    vertex 171.717083764994 122.88630713880156 32.65278901180481
  endloop
endfacet
facet normal 1.0 0.0 0.0
  outer loop
    vertex 171.717083764994 123.68630713880155 22.596815011804818
    vertex 171.717083764994 118.68630713880157 29.85278901180481
    vertex 171.717083764994 118.68630713880157 22.596815011804818
  endloop
endfacet
facet normal 1.0 0.0 0.0
  outer loop
    vertex 171.717083764994 118.68630713880157 29.85278901180481
    vertex 171.717083764994 123.68630713880155 22.596815011804818
    vertex 171.717083764994 120.88630713880156 29.852789011804816
  endloop
endfacet
facet normal 1.0 0.0 0.0
  outer loop
    vertex 171.717083764994 120.88630713880156 29.852789011804816
    vertex 171.717083764994 123.68630713880155 22.596815011804818
    vertex 171.717083764994 120.88630713880156 31.852789011804816
  endloop
endfacet
facet normal 1.0 0.0 0.0
  outer loop
    vertex 171.717083764994 120.88630713880156 31.852789011804816
    vertex 171.717083764994 123.68630713880155 22.596815011804818
    vertex 171.717083764994 120.88630713880156 44.21943201180483
  endloop
endfacet
facet normal 1.0 0.0 0.0
  outer loop
    vertex 171.717083764994 120.88630713880156 44.21943201180483
    vertex 171.717083764994 123.68630713880155 22.596815011804818
    vertex 171.717083764994 120.88630713880156 46.21943201180483
  endloop
endfacet
facet normal 1.0 0.0 0.0
  outer loop
    vertex 171.717083764994 120.88630713880156 46.21943201180483
    vertex 171.717083764994 123.68630713880155 22.596815011804818
    vertex 171.717083764994 122.88630713880156 32.65278901180481
  endloop
endfacet
facet normal 1.0 0.0 0.0
  outer loop
    vertex 171.717083764994 120.88630713880156 46.21943201180483
    vertex 171.717083764994 122.88630713880156 32.65278901180481
    vertex 171.717083764994 122.08630713880156 46.21943201180483
  endloop
endfacet
facet normal 1.0 0.0 0.0
  outer loop
    vertex 171.717083764994 122.88630713880156 32.65278901180481
    vertex 171.717083764994 123.68630713880155 22.596815011804818
    vertex 171.717083764994 123.68630713880155 31.852789011804816
  endloop
endfacet
facet normal -1.0 0.0 0.0
  outer loop
    vertex 160.61708376499405 122.08630713880156 46.21943201180483
    vertex 160.61708376499405 120.88630713880156 44.21943201180483
    vertex 160.61708376499405 120.88630713880156 46.21943201180483
  endloop
endfacet
facet normal -1.0 0.0 0.0
  outer loop
    vertex 160.61708376499405 120.88630713880156 44.21943201180483
    vertex 160.61708376499405 122.08630713880156 46.21943201180483
    vertex 160.61708376499405 120.88630713880156 31.852789011804816
  endloop
endfacet
facet normal -1.0 0.0 0.0
  outer loop
    vertex 160.61708376499405 120.88630713880156 31.852789011804816
    vertex 160.61708376499405 122.08630713880156 46.21943201180483
    vertex 160.61708376499405 120.88630713880156 29.852789011804816
  endloop
endfacet
facet normal -1.0 0.0 0.0
  outer loop
    vertex 160.61708376499405 120.88630713880156 29.852789011804816
    vertex 160.61708376499405 118.68630713880157 22.596815011804818
    vertex 160.61708376499405 118.68630713880157 29.85278901180481
  endloop
endfacet
facet normal -1.0 0.0 0.0
  outer loop
    vertex 160.61708376499405 118.68630713880157 22.596815011804818
    vertex 160.61708376499405 120.88630713880156 29.852789011804816
    vertex 160.61708376499405 123.68630713880155 22.596815011804818
  endloop
endfacet
facet normal -1.0 0.0 0.0
  outer loop
    vertex 160.61708376499405 123.68630713880155 22.596815011804818
    vertex 160.61708376499405 120.88630713880156 29.852789011804816
    vertex 160.61708376499405 122.88630713880156 32.65278901180481
  endloop
endfacet
facet normal -1.0 0.0 0.0
  outer loop
    vertex 160.61708376499405 122.88630713880156 32.65278901180481
    vertex 160.61708376499405 120.88630713880156 29.852789011804816
    vertex 160.61708376499405 122.08630713880156 46.21943201180483
  endloop
endfacet
facet normal -1.0 0.0 0.0
  outer loop
    vertex 160.61708376499405 122.88630713880156 32.65278901180481
    vertex 160.61708376499405 122.08630713880156 46.21943201180483
    vertex 160.61708376499405 122.88630713880156 45.41943201180483
  endloop
endfacet
facet normal -1.0 0.0 0.0
  outer loop
    vertex 160.61708376499405 123.68630713880155 22.596815011804818
    vertex 160.61708376499405 122.88630713880156 32.65278901180481
    vertex 160.61708376499405 123.68630713880155 31.852789011804816
  endloop
endfacet
facet normal 1.0 0.0 0.0
  outer loop
    vertex 161.61708376499405 121.68630713880155 22.596815011804818
    vertex 161.61708376499405 118.68630713880157 30.85278901180482
    vertex 161.61708376499405 118.68630713880157 22.596815011804818
  endloop
endfacet
facet normal 1.0 0.0 0.0
  outer loop
    vertex 161.61708376499405 118.68630713880157 30.85278901180482
    vertex 161.61708376499405 121.68630713880155 22.596815011804818
    vertex 161.61708376499405 121.68630713880155 30.85278901180482
  endloop
endfacet
facet normal 0.0 -1.0 0.0
  outer loop
    vertex 170.717083764994 121.68630713880155 30.85278901180482
    vertex 168.167083764994 121.68630713880155 22.596815011804818
    vertex 170.717083764994 121.68630713880155 22.596815011804818
  endloop
endfacet
facet normal 0.0 -1.0 0.0
  outer loop
    vertex 168.167083764994 121.68630713880155 22.596815011804818
    vertex 170.717083764994 121.68630713880155 30.85278901180482
    vertex 164.167083764994 121.68630713880155 22.596815011804818
  endloop
endfacet
facet normal 0.0 -1.0 0.0
  outer loop
    vertex 164.167083764994 121.68630713880155 22.596815011804818
    vertex 161.61708376499405 121.68630713880155 30.85278901180482
    vertex 161.61708376499405 121.68630713880155 22.596815011804818
  endloop
endfacet
facet normal 0.0 -1.0 0.0
  outer loop
    vertex 161.61708376499405 121.68630713880155 30.85278901180482
    vertex 164.167083764994 121.68630713880155 22.596815011804818
    vertex 170.717083764994 121.68630713880155 30.85278901180482
  endloop
endfacet
facet normal 0.0 0.0 -1.0
  outer loop
    vertex 170.717083764994 121.68630713880155 30.85278901180482
    vertex 161.61708376499405 118.68630713880157 30.85278901180482
    vertex 161.61708376499405 121.68630713880155 30.85278901180482
  endloop
endfacet
facet normal 0.0 0.0 -1.0
  outer loop
    vertex 161.61708376499405 118.68630713880157 30.85278901180482
    vertex 170.717083764994 121.68630713880155 30.85278901180482
    vertex 170.717083764994 118.68630713880157 30.85278901180482
  endloop
endfacet
facet normal 1.0 -2.742325851260132e-15 -7.97949345361281e-16
  outer loop
    vertex 168.16708376499403 123.68630713880155 22.096815011804818
    vertex 168.167083764994 123.68630713880155 22.596815011804818
    vertex 168.167083764994 121.68630713880155 22.596815011804818
  endloop
endfacet
facet normal 1.0 -2.742325851260132e-15 -7.97949345361281e-16
  outer loop
    vertex 168.167083764994 123.68630713880155 22.596815011804818
    vertex 168.16708376499403 123.68630713880155 22.096815011804818
    vertex 168.16708376499403 125.78630712710645 22.096815011804818
  endloop
endfacet
facet normal 1.0 -2.742325851260132e-15 -7.97949345361281e-16
  outer loop
    vertex 168.167083764994 123.68630713880155 22.596815011804818
    vertex 168.16708376499403 125.78630712710645 22.096815011804818
    vertex 168.16708376499403 124.92028173209336 23.59681501686895
  endloop
endfacet
facet normal 1.0 -2.742325851260132e-15 -7.97949345361281e-16
  outer loop
    vertex 168.167083764994 123.68630713880155 22.596815011804818
    vertex 168.16708376499403 124.92028173209336 23.59681501686895
    vertex 168.16708376499403 123.68630713880155 26.096815011804814
  endloop
endfacet
facet normal 1.0 -2.742325851260132e-15 -7.97949345361281e-16
  outer loop
    vertex 168.16708376499403 123.68630713880155 26.096815011804814
    vertex 168.16708376499403 124.92028173209336 23.59681501686895
    vertex 168.16708376499403 124.82038131099903 23.837995972350598
  endloop
endfacet
facet normal 1.0 -2.742325851260132e-15 -7.97949345361281e-16
  outer loop
    vertex 168.16708376499403 123.68630713880155 26.096815011804814
    vertex 168.16708376499403 124.82038131099903 23.837995972350598
    vertex 168.16708376499403 124.78630713880155 24.096815017652368
  endloop
endfacet
facet normal 1.0 -2.742325851260132e-15 -7.97949345361281e-16
  outer loop
    vertex 168.16708376499403 124.92028173209336 23.59681501686895
    vertex 168.16708376499403 125.78630712710645 22.096815011804818
    vertex 168.16708376499403 125.07920035348016 23.389708234753112
  endloop
endfacet
facet normal 1.0 -2.742325851260132e-15 -7.97949345361281e-16
  outer loop
    vertex 168.16708376499403 125.07920035348016 23.389708234753112
    vertex 168.16708376499403 125.78630712710645 22.096815011804818
    vertex 168.16708376499403 125.28630713373744 23.230789610944154
  endloop
endfacet
facet normal 1.0 -2.742325851260132e-15 -7.97949345361281e-16
  outer loop
    vertex 168.16708376499403 125.28630713373744 23.230789610944154
    vertex 168.16708376499403 125.78630712710645 22.096815011804818
    vertex 168.16708376499403 125.52748808805073 23.130889187029208
  endloop
endfacet
facet normal 1.0 -2.742325851260132e-15 -7.97949345361281e-16
  outer loop
    vertex 168.16708376499403 125.52748808805073 23.130889187029208
    vertex 168.16708376499403 125.78630712710645 22.096815011804818
    vertex 168.16708376499403 125.786307132954 23.096815011804814
  endloop
endfacet
facet normal 1.0 -2.742325851260132e-15 -7.97949345361281e-16
  outer loop
    vertex 168.16708376499403 125.786307132954 23.096815011804814
    vertex 168.16708376499403 125.78630712710645 22.096815011804818
    vertex 168.16708376499403 126.30394521771 22.164963356199767
  endloop
endfacet
facet normal 1.0 -2.742325851260132e-15 -7.97949345361281e-16
  outer loop
    vertex 168.16708376499403 125.786307132954 23.096815011804814
    vertex 168.16708376499403 126.30394521771 22.164963356199767
    vertex 168.16708376499403 126.04512617825579 23.13088918400229
  endloop
endfacet
facet normal 1.0 -2.742325851260132e-15 -7.97949345361281e-16
  outer loop
    vertex 168.16708376499403 126.04512617825579 23.13088918400229
    vertex 168.16708376499403 126.30394521771 22.164963356199767
    vertex 168.16708376499403 126.28630713373744 23.2307896050966
  endloop
endfacet
facet normal 1.0 -2.742325851260132e-15 -7.97949345361281e-16
  outer loop
    vertex 168.16708376499403 126.28630713373744 23.2307896050966
    vertex 168.16708376499403 126.30394521771 22.164963356199767
    vertex 168.16708376499403 126.49341391585327 23.389708226483425
  endloop
endfacet
facet normal 1.0 -2.742325851260132e-15 -7.97949345361281e-16
  outer loop
    vertex 168.16708376499403 126.49341391585327 23.389708226483425
    vertex 168.16708376499403 126.30394521771 22.164963356199767
    vertex 168.16708376499403 126.78630712867329 22.36476419838839
  endloop
endfacet
facet normal 1.0 -2.742325851260132e-15 -7.97949345361281e-16
  outer loop
    vertex 168.16708376499403 126.49341391585327 23.389708226483425
    vertex 168.16708376499403 126.78630712867329 22.36476419838839
    vertex 168.16708376499403 126.65233253966223 23.596815006740684
  endloop
endfacet
facet normal 1.0 -2.742325851260132e-15 -7.97949345361281e-16
  outer loop
    vertex 168.16708376499403 126.65233253966223 23.596815006740684
    vertex 168.16708376499403 126.78630712867329 22.36476419838839
    vertex 168.16708376499403 126.75223296357717 23.83799596105399
  endloop
endfacet
facet normal 1.0 -2.742325851260132e-15 -7.97949345361281e-16
  outer loop
    vertex 168.16708376499403 126.75223296357717 23.83799596105399
    vertex 168.16708376499403 126.78630712867329 22.36476419838839
    vertex 168.16708376499403 126.78630713880158 24.096815005957264
  endloop
endfacet
facet normal 1.0 -2.742325851260132e-15 -7.97949345361281e-16
  outer loop
    vertex 168.16708376499403 126.78630713880158 24.096815005957264
    vertex 168.16708376499403 126.78630712867329 22.36476419838839
    vertex 168.16708376499403 127.20052069290497 22.68260144116204
  endloop
endfacet
facet normal 1.0 -2.742325851260132e-15 -7.97949345361281e-16
  outer loop
    vertex 168.16708376499403 126.78630713880158 24.096815005957264
    vertex 168.16708376499403 127.20052069290497 22.68260144116204
    vertex 168.16708376499403 126.78630714892981 25.828865813526143
  endloop
endfacet
facet normal 1.0 -2.742325851260132e-15 -7.97949345361281e-16
  outer loop
    vertex 168.16708376499403 126.78630714892981 25.828865813526143
    vertex 168.16708376499403 127.20052069290497 22.68260144116204
    vertex 168.16708376499403 127.20052070944432 25.51102856590822
  endloop
endfacet
facet normal 1.0 -2.742325851260132e-15 -7.97949345361281e-16
  outer loop
    vertex 168.16708376499403 127.20052070944432 25.51102856590822
    vertex 168.16708376499403 127.20052069290497 22.68260144116204
    vertex 168.16708376499403 127.51835794052286 23.096815001676564
  endloop
endfacet
facet normal 1.0 -2.742325851260132e-15 -7.97949345361281e-16
  outer loop
    vertex 168.16708376499403 127.20052070944432 25.51102856590822
    vertex 168.16708376499403 127.51835794052286 23.096815001676564
    vertex 168.16708376499403 127.51835795221797 25.09681500167656
  endloop
endfacet
facet normal 1.0 -2.742325851260132e-15 -7.97949345361281e-16
  outer loop
    vertex 168.16708376499403 127.51835795221797 25.09681500167656
    vertex 168.16708376499403 127.51835794052286 23.096815001676564
    vertex 168.16708376499403 127.71815878835278 23.579176910303175
  endloop
endfacet
facet normal 1.0 -2.742325851260132e-15 -7.97949345361281e-16
  outer loop
    vertex 168.16708376499403 127.51835795221797 25.09681500167656
    vertex 168.16708376499403 127.71815878835278 23.579176910303175
    vertex 168.16708376499403 127.7181587944066 24.61445309071326
  endloop
endfacet
facet normal 1.0 -2.742325851260132e-15 -7.97949345361281e-16
  outer loop
    vertex 168.16708376499403 127.7181587944066 24.61445309071326
    vertex 168.16708376499403 127.71815878835278 23.579176910303175
    vertex 168.16708376499403 127.78630713880155 24.096815000109714
  endloop
endfacet
facet normal 1.0 -2.742325851260132e-15 -7.97949345361281e-16
  outer loop
    vertex 168.16708376499403 123.68630713880155 26.096815011804814
    vertex 168.16708376499403 124.9202817379409 24.596815016868945
    vertex 168.16708376499403 125.78630715049665 26.096815011804814
  endloop
endfacet
facet normal 1.0 -2.742325851260132e-15 -7.97949345361281e-16
  outer loop
    vertex 168.16708376499403 124.9202817379409 24.596815016868945
    vertex 168.16708376499403 123.68630713880155 26.096815011804814
    vertex 168.16708376499403 124.82038131402595 24.355634062555637
  endloop
endfacet
facet normal 1.0 -2.742325851260132e-15 -7.97949345361281e-16
  outer loop
    vertex 168.16708376499403 124.82038131402595 24.355634062555637
    vertex 168.16708376499403 123.68630713880155 26.096815011804814
    vertex 168.16708376499403 124.78630713880155 24.096815017652368
  endloop
endfacet
facet normal 1.0 -2.742325851260132e-15 -7.97949345361281e-16
  outer loop
    vertex 168.16708376499403 125.78630715049665 26.096815011804814
    vertex 168.16708376499403 124.9202817379409 24.596815016868945
    vertex 168.16708376499403 125.07920036174986 24.803921797126208
  endloop
endfacet
facet normal 1.0 -2.742325851260132e-15 -7.97949345361281e-16
  outer loop
    vertex 168.16708376499403 125.78630715049665 26.096815011804814
    vertex 168.16708376499403 125.07920036174986 24.803921797126208
    vertex 168.16708376499403 125.2863071438657 24.962840418513032
  endloop
endfacet
facet normal 1.0 -2.742325851260132e-15 -7.97949345361281e-16
  outer loop
    vertex 168.16708376499403 125.78630715049665 26.096815011804814
    vertex 168.16708376499403 125.2863071438657 24.962840418513032
    vertex 168.16708376499403 125.52748809934734 25.062740839607343
  endloop
endfacet
facet normal 1.0 -2.742325851260132e-15 -7.97949345361281e-16
  outer loop
    vertex 168.16708376499403 125.78630715049665 26.096815011804814
    vertex 168.16708376499403 125.52748809934734 25.062740839607343
    vertex 168.16708376499403 125.78630714464913 25.096815011804818
  endloop
endfacet
facet normal 1.0 -2.742325851260132e-15 -7.97949345361281e-16
  outer loop
    vertex 168.16708376499403 125.78630715049665 26.096815011804814
    vertex 168.16708376499403 125.78630714464913 25.096815011804818
    vertex 168.16708376499403 126.04512618955239 25.062740836580428
  endloop
endfacet
facet normal 1.0 -2.742325851260132e-15 -7.97949345361281e-16
  outer loop
    vertex 168.16708376499403 125.78630715049665 26.096815011804814
    vertex 168.16708376499403 126.04512618955239 25.062740836580428
    vertex 168.16708376499403 126.30394524030321 26.028666661356038
  endloop
endfacet
facet normal 1.0 -2.742325851260132e-15 -7.97949345361281e-16
  outer loop
    vertex 168.16708376499403 126.30394524030321 26.028666661356038
    vertex 168.16708376499403 126.04512618955239 25.062740836580428
    vertex 168.16708376499403 126.28630714386568 24.96284041266548
  endloop
endfacet
facet normal 1.0 -2.742325851260132e-15 -7.97949345361281e-16
  outer loop
    vertex 168.16708376499403 126.30394524030321 26.028666661356038
    vertex 168.16708376499403 126.28630714386568 24.96284041266548
    vertex 168.16708376499403 126.49341392412296 24.80392178885652
  endloop
endfacet
facet normal 1.0 -2.742325851260132e-15 -7.97949345361281e-16
  outer loop
    vertex 168.16708376499403 126.30394524030321 26.028666661356038
    vertex 168.16708376499403 126.49341392412296 24.80392178885652
    vertex 168.16708376499403 126.78630714892981 25.828865813526143
  endloop
endfacet
facet normal 1.0 -2.742325851260132e-15 -7.97949345361281e-16
  outer loop
    vertex 168.16708376499403 126.78630714892981 25.828865813526143
    vertex 168.16708376499403 126.49341392412296 24.80392178885652
    vertex 168.16708376499403 126.65233254550976 24.596815006740687
  endloop
endfacet
facet normal 1.0 -2.742325851260132e-15 -7.97949345361281e-16
  outer loop
    vertex 168.16708376499403 126.78630714892981 25.828865813526143
    vertex 168.16708376499403 126.65233254550976 24.596815006740687
    vertex 168.16708376499403 126.7522329666041 24.355634051259035
  endloop
endfacet
facet normal 1.0 -2.742325851260132e-15 -7.97949345361281e-16
  outer loop
    vertex 168.16708376499403 126.78630714892981 25.828865813526143
    vertex 168.16708376499403 126.7522329666041 24.355634051259035
    vertex 168.16708376499403 126.78630713880158 24.096815005957264
  endloop
endfacet
facet normal 0.0 0.0 1.0
  outer loop
    vertex 178.71708376499402 117.68630713880152 46.21943201180483
    vertex 153.61708376499402 120.88630713880156 46.21943201180483
    vertex 153.61708376499402 117.68630713880152 46.21943201180483
  endloop
endfacet
facet normal 0.0 0.0 1.0
  outer loop
    vertex 153.61708376499402 120.88630713880156 46.21943201180483
    vertex 178.71708376499402 117.68630713880152 46.21943201180483
    vertex 160.61708376499405 120.88630713880156 46.21943201180483
  endloop
endfacet
facet normal 0.0 0.0 1.0
  outer loop
    vertex 160.61708376499405 120.88630713880156 46.21943201180483
    vertex 178.71708376499402 117.68630713880152 46.21943201180483
    vertex 160.61708376499405 122.08630713880156 46.21943201180483
  endloop
endfacet
facet normal 0.0 0.0 1.0
  outer loop
    vertex 160.61708376499405 122.08630713880156 46.21943201180483
    vertex 178.71708376499402 117.68630713880152 46.21943201180483
    vertex 171.717083764994 120.88630713880156 46.21943201180483
  endloop
endfacet
facet normal 0.0 0.0 1.0
  outer loop
    vertex 171.717083764994 120.88630713880156 46.21943201180483
    vertex 178.71708376499402 117.68630713880152 46.21943201180483
    vertex 178.71708376499402 120.88630713880156 46.21943201180483
  endloop
endfacet
facet normal 0.0 0.0 1.0
  outer loop
    vertex 171.717083764994 122.08630713880156 46.21943201180483
    vertex 160.61708376499405 122.08630713880156 46.21943201180483
    vertex 171.717083764994 120.88630713880156 46.21943201180483
  endloop
endfacet
facet normal 0.0 1.0 0.0
  outer loop
    vertex 171.717083764994 120.88630713880156 46.21943201180483
    vertex 178.71708376499402 120.88630713880156 44.21943201180483
    vertex 171.717083764994 120.88630713880156 44.21943201180483
  endloop
endfacet
facet normal 0.0 1.0 0.0
  outer loop
    vertex 178.71708376499402 120.88630713880156 44.21943201180483
    vertex 171.717083764994 120.88630713880156 46.21943201180483
    vertex 178.71708376499402 120.88630713880156 46.21943201180483
  endloop
endfacet
facet normal 0.0 -1.0 0.0
  outer loop
    vertex 178.71708376499402 116.68630713880152 45.219432011804834
    vertex 153.61708376499402 116.68630713880152 44.21943201180483
    vertex 178.71708376499402 116.68630713880152 44.21943201180483
  endloop
endfacet
facet normal 0.0 -1.0 0.0
  outer loop
    vertex 153.61708376499402 116.68630713880152 44.21943201180483
    vertex 178.71708376499402 116.68630713880152 45.219432011804834
    vertex 153.61708376499402 116.68630713880152 45.219432011804834
  endloop
endfacet
facet normal 1.0 0.0 0.0
  outer loop
    vertex 178.71708376499402 120.88630713880156 44.21943201180483
    vertex 178.71708376499402 116.68630713880152 45.219432011804834
    vertex 178.71708376499402 116.68630713880152 44.21943201180483
  endloop
endfacet
facet normal 1.0 0.0 0.0
  outer loop
    vertex 178.71708376499402 116.68630713880152 45.219432011804834
    vertex 178.71708376499402 120.88630713880156 44.21943201180483
    vertex 178.71708376499402 117.68630713880152 46.21943201180483
  endloop
endfacet
facet normal 1.0 0.0 0.0
  outer loop
    vertex 178.71708376499402 117.68630713880152 46.21943201180483
    vertex 178.71708376499402 120.88630713880156 44.21943201180483
    vertex 178.71708376499402 120.88630713880156 46.21943201180483
  endloop
endfacet
facet normal -1.0 0.0 0.0
  outer loop
    vertex 153.61708376499402 117.68630713880152 46.21943201180483
    vertex 153.61708376499402 116.68630713880152 44.21943201180483
    vertex 153.61708376499402 116.68630713880152 45.219432011804834
  endloop
endfacet
facet normal -1.0 0.0 0.0
  outer loop
    vertex 153.61708376499402 116.68630713880152 44.21943201180483
    vertex 153.61708376499402 117.68630713880152 46.21943201180483
    vertex 153.61708376499402 120.88630713880156 44.21943201180483
  endloop
endfacet
facet normal -1.0 0.0 0.0
  outer loop
    vertex 153.61708376499402 120.88630713880156 44.21943201180483
    vertex 153.61708376499402 117.68630713880152 46.21943201180483
    vertex 153.61708376499402 120.88630713880156 46.21943201180483
  endloop
endfacet
facet normal 0.0 0.0 -1.0
  outer loop
    vertex 160.61708376499405 120.88630713880156 44.21943201180483
    vertex 153.61708376499402 116.68630713880152 44.21943201180483
    vertex 153.61708376499402 120.88630713880156 44.21943201180483
  endloop
endfacet
facet normal 0.0 0.0 -1.0
  outer loop
    vertex 153.61708376499402 116.68630713880152 44.21943201180483
    vertex 160.61708376499405 120.88630713880156 44.21943201180483
    vertex 178.71708376499402 116.68630713880152 44.21943201180483
  endloop
endfacet
facet normal 0.0 0.0 -1.0
  outer loop
    vertex 178.71708376499402 116.68630713880152 44.21943201180483
    vertex 160.61708376499405 120.88630713880156 44.21943201180483
    vertex 171.717083764994 120.88630713880156 44.21943201180483
  endloop
endfacet
facet normal 0.0 0.0 -1.0
  outer loop
    vertex 178.71708376499402 116.68630713880152 44.21943201180483
    vertex 171.717083764994 120.88630713880156 44.21943201180483
    vertex 178.71708376499402 120.88630713880156 44.21943201180483
  endloop
endfacet
facet normal 4.0285235464969976e-16 1.0 4.0826083067390837e-32
  outer loop
    vertex 171.717083764994 120.88630713880156 29.852789011804816
    vertex 178.71708376499402 120.88630713880156 31.852789011804816
    vertex 178.71708376499402 120.88630713880156 29.85278901180481
  endloop
endfacet
facet normal 4.0285235464969976e-16 1.0 4.0826083067390837e-32
  outer loop
    vertex 178.71708376499402 120.88630713880156 31.852789011804816
    vertex 171.717083764994 120.88630713880156 29.852789011804816
    vertex 171.717083764994 120.88630713880156 31.852789011804816
  endloop
endfacet
facet normal -1.8794285524004227e-16 -6.86628305490136e-16 1.0
  outer loop
    vertex 178.71708376499402 116.68630713880152 31.852789011804816
    vertex 171.717083764994 118.68630713880157 31.852789011804813
    vertex 171.717083764994 116.68630713880152 31.852789011804813
  endloop
endfacet
facet normal -1.8794285524004227e-16 -6.86628305490136e-16 1.0
  outer loop
    vertex 171.717083764994 118.68630713880157 31.852789011804813
    vertex 178.71708376499402 116.68630713880152 31.852789011804816
    vertex 171.717083764994 120.88630713880156 31.852789011804816
  endloop
endfacet
facet normal -1.8794285524004227e-16 -6.86628305490136e-16 1.0
  outer loop
    vertex 171.717083764994 120.88630713880156 31.852789011804816
    vertex 178.71708376499402 116.68630713880152 31.852789011804816
    vertex 178.71708376499402 120.88630713880156 31.852789011804816
  endloop
endfacet
facet normal -1.8794285524004227e-16 -6.86628305490136e-16 1.0
  outer loop
    vertex 178.71708376499402 120.88630713880156 31.852789011804816
    vertex 178.71708376499402 116.68630713880152 31.852789011804816
    vertex 178.71708376499402 118.88630713880157 31.852789011804816
  endloop
endfacet
facet normal -1.8794285524004227e-16 -6.86628305490136e-16 1.0
  outer loop
    vertex 160.61708376499405 116.68630713880152 31.852789011804813
    vertex 153.61708376499402 118.88630713880157 31.852789011804813
    vertex 153.61708376499402 116.68630713880152 31.852789011804813
  endloop
endfacet
facet normal -1.8794285524004227e-16 -6.86628305490136e-16 1.0
  outer loop
    vertex 153.61708376499402 118.88630713880157 31.852789011804813
    vertex 160.61708376499405 116.68630713880152 31.852789011804813
    vertex 153.61708376499402 120.88630713880156 31.852789011804813
  endloop
endfacet
facet normal -1.8794285524004227e-16 -6.86628305490136e-16 1.0
  outer loop
    vertex 153.61708376499402 120.88630713880156 31.852789011804813
    vertex 160.61708376499405 116.68630713880152 31.852789011804813
    vertex 160.61708376499405 120.88630713880156 31.852789011804816
  endloop
endfacet
facet normal -1.8794285524004227e-16 -6.86628305490136e-16 1.0
  outer loop
    vertex 160.61708376499405 120.88630713880156 31.852789011804816
    vertex 160.61708376499405 116.68630713880152 31.852789011804813
    vertex 160.61708376499405 118.68630713880157 31.852789011804813
  endloop
endfacet
facet normal -1.8794285524004227e-16 -6.86628305490136e-16 1.0
  outer loop
    vertex 160.61708376499405 120.88630713880156 31.852789011804816
    vertex 160.61708376499405 118.68630713880157 31.852789011804813
    vertex 171.717083764994 118.68630713880157 31.852789011804813
  endloop
endfacet
facet normal -1.8794285524004227e-16 -6.86628305490136e-16 1.0
  outer loop
    vertex 160.61708376499405 120.88630713880156 31.852789011804816
    vertex 171.717083764994 118.68630713880157 31.852789011804813
    vertex 171.717083764994 120.88630713880156 31.852789011804816
  endloop
endfacet
facet normal -2.9624511576021034e-16 9.686907764477367e-16 -1.0
  outer loop
    vertex 178.71708376499402 120.88630713880156 29.85278901180481
    vertex 171.717083764994 118.68630713880157 29.85278901180481
    vertex 171.717083764994 120.88630713880156 29.852789011804816
  endloop
endfacet
facet normal -2.9624511576021034e-16 9.686907764477367e-16 -1.0
  outer loop
    vertex 171.717083764994 118.68630713880157 29.85278901180481
    vertex 178.71708376499402 120.88630713880156 29.85278901180481
    vertex 171.717083764994 117.68630713880152 29.85278901180481
  endloop
endfacet
facet normal -2.9624511576021034e-16 9.686907764477367e-16 -1.0
  outer loop
    vertex 171.717083764994 117.68630713880152 29.85278901180481
    vertex 178.71708376499402 120.88630713880156 29.85278901180481
    vertex 178.71708376499402 117.68630713880152 29.85278901180481
  endloop
endfacet
facet normal 2.962451157602103e-16 9.686907764477345e-16 -1.0
  outer loop
    vertex 160.61708376499405 120.88630713880156 29.852789011804816
    vertex 153.61708376499402 117.68630713880152 29.85278901180481
    vertex 153.61708376499402 120.88630713880156 29.85278901180481
  endloop
endfacet
facet normal 2.962451157602103e-16 9.686907764477345e-16 -1.0
  outer loop
    vertex 153.61708376499402 117.68630713880152 29.85278901180481
    vertex 160.61708376499405 120.88630713880156 29.852789011804816
    vertex 160.61708376499405 117.68630713880152 29.85278901180481
  endloop
endfacet
facet normal 2.962451157602103e-16 9.686907764477345e-16 -1.0
  outer loop
    vertex 160.61708376499405 117.68630713880152 29.85278901180481
    vertex 160.61708376499405 120.88630713880156 29.852789011804816
    vertex 160.61708376499405 118.68630713880157 29.85278901180481
  endloop
endfacet
facet normal 0.0 1.0 0.0
  outer loop
    vertex 153.61708376499402 120.88630713880156 31.852789011804813
    vertex 160.61708376499405 120.88630713880156 29.852789011804816
    vertex 153.61708376499402 120.88630713880156 29.85278901180481
  endloop
endfacet
facet normal 0.0 1.0 0.0
  outer loop
    vertex 160.61708376499405 120.88630713880156 29.852789011804816
    vertex 153.61708376499402 120.88630713880156 31.852789011804813
    vertex 160.61708376499405 120.88630713880156 31.852789011804816
  endloop
endfacet
facet normal 0.0 1.0 0.0
  outer loop
    vertex 160.61708376499405 122.88630713880156 45.41943201180483
    vertex 171.717083764994 122.88630713880156 32.65278901180481
    vertex 160.61708376499405 122.88630713880156 32.65278901180481
  endloop
endfacet
facet normal 0.0 1.0 0.0
  outer loop
    vertex 171.717083764994 122.88630713880156 32.65278901180481
    vertex 160.61708376499405 122.88630713880156 45.41943201180483
    vertex 171.717083764994 122.88630713880156 45.41943201180483
  endloop
endfacet
facet normal 0.0 -1.0 0.0
  outer loop
    vertex 171.717083764994 120.88630713880156 44.21943201180483
    vertex 160.61708376499405 120.88630713880156 31.852789011804816
    vertex 171.717083764994 120.88630713880156 31.852789011804816
  endloop
endfacet
facet normal 0.0 -1.0 0.0
  outer loop
    vertex 160.61708376499405 120.88630713880156 31.852789011804816
    vertex 171.717083764994 120.88630713880156 44.21943201180483
    vertex 160.61708376499405 120.88630713880156 44.21943201180483
  endloop
endfacet
facet normal 0.0 0.707106781186547 0.7071067811865481
  outer loop
    vertex 171.717083764994 122.08630713880156 46.21943201180483
    vertex 160.61708376499405 122.88630713880156 45.41943201180483
    vertex 160.61708376499405 122.08630713880156 46.21943201180483
  endloop
endfacet
facet normal 0.0 0.707106781186547 0.7071067811865481
  outer loop
    vertex 160.61708376499405 122.88630713880156 45.41943201180483
    vertex 171.717083764994 122.08630713880156 46.21943201180483
    vertex 171.717083764994 122.88630713880156 45.41943201180483
  endloop
endfacet
facet normal 0.0 0.7071067811865485 0.7071067811865467
  outer loop
    vertex 160.61708376499405 122.88630713880156 32.65278901180481
    vertex 171.717083764994 123.68630713880155 31.852789011804816
    vertex 160.61708376499405 123.68630713880155 31.852789011804816
  endloop
endfacet
facet normal 0.0 0.7071067811865485 0.7071067811865467
  outer loop
    vertex 171.717083764994 123.68630713880155 31.852789011804816
    vertex 160.61708376499405 122.88630713880156 32.65278901180481
    vertex 171.717083764994 122.88630713880156 32.65278901180481
  endloop
endfacet
facet normal 0.0 -0.7071067811865476 -0.7071067811865476
  outer loop
    vertex 178.71708376499402 116.68630713880152 30.852789011804813
    vertex 171.717083764994 117.68630713880152 29.85278901180481
    vertex 178.71708376499402 117.68630713880152 29.85278901180481
  endloop
endfacet
facet normal 0.0 -0.7071067811865476 -0.7071067811865476
  outer loop
    vertex 171.717083764994 117.68630713880152 29.85278901180481
    vertex 178.71708376499402 116.68630713880152 30.852789011804813
    vertex 171.717083764994 116.68630713880152 30.852789011804813
  endloop
endfacet
facet normal 0.0 -0.7071067811865476 0.7071067811865476
  outer loop
    vertex 178.71708376499402 117.68630713880152 46.21943201180483
    vertex 153.61708376499402 116.68630713880152 45.219432011804834
    vertex 178.71708376499402 116.68630713880152 45.219432011804834
  endloop
endfacet
facet normal 0.0 -0.7071067811865476 0.7071067811865476
  outer loop
    vertex 153.61708376499402 116.68630713880152 45.219432011804834
    vertex 178.71708376499402 117.68630713880152 46.21943201180483
    vertex 153.61708376499402 117.68630713880152 46.21943201180483
  endloop
endfacet
facet normal 0.0 -0.7071067811865476 -0.7071067811865476
  outer loop
    vertex 160.61708376499405 116.68630713880152 30.85278901180481
    vertex 153.61708376499402 117.68630713880152 29.85278901180481
    vertex 160.61708376499405 117.68630713880152 29.85278901180481
  endloop
endfacet
facet normal 0.0 -0.7071067811865476 -0.7071067811865476
  outer loop
    vertex 153.61708376499402 117.68630713880152 29.85278901180481
    vertex 160.61708376499405 116.68630713880152 30.85278901180481
    vertex 153.61708376499402 116.68630713880152 30.85278901180481
  endloop
endfacet
facet normal 1.0 0.0 0.0
  outer loop
    vertex 160.61708376499405 117.68630713880152 29.85278901180481
    vertex 160.61708376499405 116.68630713880152 31.852789011804813
    vertex 160.61708376499405 116.68630713880152 30.85278901180481
  endloop
endfacet
facet normal 1.0 0.0 0.0
  outer loop
    vertex 160.61708376499405 116.68630713880152 31.852789011804813
    vertex 160.61708376499405 117.68630713880152 29.85278901180481
    vertex 160.61708376499405 118.68630713880157 31.852789011804813
  endloop
endfacet
facet normal 1.0 0.0 0.0
  outer loop
    vertex 160.61708376499405 118.68630713880157 31.852789011804813
    vertex 160.61708376499405 117.68630713880152 29.85278901180481
    vertex 160.61708376499405 118.68630713880157 29.85278901180481
  endloop
endfacet
facet normal -1.0 0.0 0.0
  outer loop
    vertex 171.717083764994 118.68630713880157 31.852789011804813
    vertex 171.717083764994 116.68630713880152 30.852789011804813
    vertex 171.717083764994 116.68630713880152 31.852789011804813
  endloop
endfacet
facet normal -1.0 0.0 0.0
  outer loop
    vertex 171.717083764994 116.68630713880152 30.852789011804813
    vertex 171.717083764994 118.68630713880157 31.852789011804813
    vertex 171.717083764994 117.68630713880152 29.85278901180481
  endloop
endfacet
facet normal -1.0 0.0 0.0
  outer loop
    vertex 171.717083764994 117.68630713880152 29.85278901180481
    vertex 171.717083764994 118.68630713880157 31.852789011804813
    vertex 171.717083764994 118.68630713880157 29.85278901180481
  endloop
endfacet
facet normal 0.0 -1.0 0.0
  outer loop
    vertex 171.717083764994 118.68630713880157 29.85278901180481
    vertex 170.717083764994 118.68630713880157 22.596815011804818
    vertex 171.717083764994 118.68630713880157 22.596815011804818
  endloop
endfacet
facet normal 0.0 -1.0 0.0
  outer loop
    vertex 170.717083764994 118.68630713880157 22.596815011804818
    vertex 171.717083764994 118.68630713880157 29.85278901180481
    vertex 170.717083764994 118.68630713880157 30.85278901180482
  endloop
endfacet
facet normal 0.0 -1.0 0.0
  outer loop
    vertex 170.717083764994 118.68630713880157 30.85278901180482
    vertex 171.717083764994 118.68630713880157 29.85278901180481
    vertex 171.717083764994 118.68630713880157 31.852789011804813
  endloop
endfacet
facet normal 0.0 -1.0 0.0
  outer loop
    vertex 170.717083764994 118.68630713880157 30.85278901180482
    vertex 171.717083764994 118.68630713880157 31.852789011804813
    vertex 161.61708376499405 118.68630713880157 30.85278901180482
  endloop
endfacet
facet normal 0.0 -1.0 0.0
  outer loop
    vertex 161.61708376499405 118.68630713880157 30.85278901180482
    vertex 160.61708376499405 118.68630713880157 22.596815011804818
    vertex 161.61708376499405 118.68630713880157 22.596815011804818
  endloop
endfacet
facet normal 0.0 -1.0 0.0
  outer loop
    vertex 160.61708376499405 118.68630713880157 22.596815011804818
    vertex 161.61708376499405 118.68630713880157 30.85278901180482
    vertex 160.61708376499405 118.68630713880157 29.85278901180481
  endloop
endfacet
facet normal 0.0 -1.0 0.0
  outer loop
    vertex 160.61708376499405 118.68630713880157 29.85278901180481
    vertex 161.61708376499405 118.68630713880157 30.85278901180482
    vertex 160.61708376499405 118.68630713880157 31.852789011804813
  endloop
endfacet
facet normal 0.0 -1.0 0.0
  outer loop
    vertex 160.61708376499405 118.68630713880157 31.852789011804813
    vertex 161.61708376499405 118.68630713880157 30.85278901180482
    vertex 171.717083764994 118.68630713880157 31.852789011804813
  endloop
endfacet
facet normal 0.0 -1.0 0.0
  outer loop
    vertex 178.71708376499402 116.68630713880152 31.852789011804816
    vertex 171.717083764994 116.68630713880152 30.852789011804813
    vertex 178.71708376499402 116.68630713880152 30.852789011804813
  endloop
endfacet
facet normal 0.0 -1.0 0.0
  outer loop
    vertex 171.717083764994 116.68630713880152 30.852789011804813
    vertex 178.71708376499402 116.68630713880152 31.852789011804816
    vertex 171.717083764994 116.68630713880152 31.852789011804813
  endloop
endfacet
facet normal -1.0 0.0 0.0
  outer loop
    vertex 153.61708376499402 118.88630713880157 31.852789011804813
    vertex 153.61708376499402 116.68630713880152 30.85278901180481
    vertex 153.61708376499402 116.68630713880152 31.852789011804813
  endloop
endfacet
facet normal -1.0 0.0 0.0
  outer loop
    vertex 153.61708376499402 116.68630713880152 30.85278901180481
    vertex 153.61708376499402 118.88630713880157 31.852789011804813
    vertex 153.61708376499402 117.68630713880152 29.85278901180481
  endloop
endfacet
facet normal -1.0 0.0 0.0
  outer loop
    vertex 153.61708376499402 117.68630713880152 29.85278901180481
    vertex 153.61708376499402 118.88630713880157 31.852789011804813
    vertex 153.61708376499402 120.88630713880156 29.85278901180481
  endloop
endfacet
facet normal -1.0 0.0 0.0
  outer loop
    vertex 153.61708376499402 120.88630713880156 29.85278901180481
    vertex 153.61708376499402 118.88630713880157 31.852789011804813
    vertex 153.61708376499402 120.88630713880156 31.852789011804813
  endloop
endfacet
facet normal 0.0 -1.0 0.0
  outer loop
    vertex 160.61708376499405 116.68630713880152 31.852789011804813
    vertex 153.61708376499402 116.68630713880152 30.85278901180481
    vertex 160.61708376499405 116.68630713880152 30.85278901180481
  endloop
endfacet
facet normal 0.0 -1.0 0.0
  outer loop
    vertex 153.61708376499402 116.68630713880152 30.85278901180481
    vertex 160.61708376499405 116.68630713880152 31.852789011804813
    vertex 153.61708376499402 116.68630713880152 31.852789011804813
  endloop
endfacet
facet normal 1.0 0.0 0.0
  outer loop
    vertex 178.71708376499402 117.68630713880152 29.85278901180481
    vertex 178.71708376499402 116.68630713880152 31.852789011804816
    vertex 178.71708376499402 116.68630713880152 30.852789011804813
  endloop
endfacet
facet normal 1.0 0.0 0.0
  outer loop
    vertex 178.71708376499402 116.68630713880152 31.852789011804816
    vertex 178.71708376499402 117.68630713880152 29.85278901180481
    vertex 178.71708376499402 118.88630713880157 31.852789011804816
  endloop
endfacet
facet normal 1.0 0.0 0.0
  outer loop
    vertex 178.71708376499402 118.88630713880157 31.852789011804816
    vertex 178.71708376499402 117.68630713880152 29.85278901180481
    vertex 178.71708376499402 120.88630713880156 29.85278901180481
  endloop
endfacet
facet normal 1.0 0.0 0.0
  outer loop
    vertex 178.71708376499402 118.88630713880157 31.852789011804816
    vertex 178.71708376499402 120.88630713880156 29.85278901180481
    vertex 178.71708376499402 120.88630713880156 31.852789011804816
  endloop
endfacet
facet normal 0.0 1.0 0.0
  outer loop
    vertex 153.61708376499402 120.88630713880156 46.21943201180483
    vertex 160.61708376499405 120.88630713880156 44.21943201180483
    vertex 153.61708376499402 120.88630713880156 44.21943201180483
  endloop
endfacet
facet normal 0.0 1.0 0.0
  outer loop
    vertex 160.61708376499405 120.88630713880156 44.21943201180483
    vertex 153.61708376499402 120.88630713880156 46.21943201180483
    vertex 160.61708376499405 120.88630713880156 46.21943201180483
  endloop
endfacet
facet normal 1.7341808440067727e-18 -0.7933533438510254 -0.6087614243695117
  outer loop
    vertex 168.16708376499403 126.49341392412296 24.80392178885652
    vertex 164.16708376499403 126.65233254550976 24.596815006740687
    vertex 168.16708376499403 126.65233254550976 24.596815006740687
  endloop
endfacet
facet normal 1.7341808440067727e-18 -0.7933533438510254 -0.6087614243695117
  outer loop
    vertex 164.16708376499403 126.65233254550976 24.596815006740687
    vertex 168.16708376499403 126.49341392412296 24.80392178885652
    vertex 164.16708376499403 126.49341392412296 24.80392178885652
  endloop
endfacet
facet normal -5.189859313972234e-31 -0.9914448606105457 0.1305261980176233
  outer loop
    vertex 168.16708376499403 126.78630713880158 24.096815005957264
    vertex 164.16708376499403 126.75223296357717 23.83799596105399
    vertex 168.16708376499403 126.75223296357717 23.83799596105399
  endloop
endfacet
facet normal -5.189859313972234e-31 -0.9914448606105457 0.1305261980176233
  outer loop
    vertex 164.16708376499403 126.75223296357717 23.83799596105399
    vertex 168.16708376499403 126.78630713880158 24.096815005957264
    vertex 164.16708376499403 126.78630713880158 24.096815005957264
  endloop
endfacet
facet normal -7.346884964439539e-30 -0.3826834269626592 0.9238795347490467
  outer loop
    vertex 168.16708376499403 126.04512617825579 23.13088918400229
    vertex 164.16708376499403 126.28630713373744 23.2307896050966
    vertex 164.16708376499403 126.04512617825579 23.13088918400229
  endloop
endfacet
facet normal -7.346884964439539e-30 -0.3826834269626592 0.9238795347490467
  outer loop
    vertex 164.16708376499403 126.28630713373744 23.2307896050966
    vertex 168.16708376499403 126.04512617825579 23.13088918400229
    vertex 168.16708376499403 126.28630713373744 23.2307896050966
  endloop
endfacet
facet normal 1.5215897145280826e-30 0.9238795302735239 -0.38268343776752717
  outer loop
    vertex 164.16708376499403 124.9202817379409 24.596815016868945
    vertex 168.16708376499403 124.82038131402595 24.355634062555637
    vertex 164.16708376499403 124.82038131402595 24.355634062555637
  endloop
endfacet
facet normal 1.5215897145280826e-30 0.9238795302735239 -0.38268343776752717
  outer loop
    vertex 168.16708376499403 124.82038131402595 24.355634062555637
    vertex 164.16708376499403 124.9202817379409 24.596815016868945
    vertex 168.16708376499403 124.9202817379409 24.596815016868945
  endloop
endfacet
facet normal 1.6209540511015098e-29 0.6087614243695508 -0.7933533438509953
  outer loop
    vertex 168.16708376499403 125.2863071438657 24.962840418513032
    vertex 164.16708376499403 125.07920036174986 24.803921797126208
    vertex 164.16708376499403 125.2863071438657 24.962840418513032
  endloop
endfacet
facet normal 1.6209540511015098e-29 0.6087614243695508 -0.7933533438509953
  outer loop
    vertex 164.16708376499403 125.07920036174986 24.803921797126208
    vertex 168.16708376499403 125.2863071438657 24.962840418513032
    vertex 168.16708376499403 125.07920036174986 24.803921797126208
  endloop
endfacet
facet normal 0.0 0.3826834269626592 -0.9238795347490467
  outer loop
    vertex 168.16708376499403 125.52748809934734 25.062740839607343
    vertex 164.16708376499403 125.2863071438657 24.962840418513032
    vertex 164.16708376499403 125.52748809934734 25.062740839607343
  endloop
endfacet
facet normal 0.0 0.3826834269626592 -0.9238795347490467
  outer loop
    vertex 164.16708376499403 125.2863071438657 24.962840418513032
    vertex 168.16708376499403 125.52748809934734 25.062740839607343
    vertex 168.16708376499403 125.2863071438657 24.962840418513032
  endloop
endfacet
facet normal 3.090912952932448e-29 -0.9238795347490254 -0.38268342696271085
  outer loop
    vertex 168.16708376499403 126.65233254550976 24.596815006740687
    vertex 164.16708376499403 126.7522329666041 24.355634051259035
    vertex 168.16708376499403 126.7522329666041 24.355634051259035
  endloop
endfacet
facet normal 3.090912952932448e-29 -0.9238795347490254 -0.38268342696271085
  outer loop
    vertex 164.16708376499403 126.7522329666041 24.355634051259035
    vertex 168.16708376499403 126.65233254550976 24.596815006740687
    vertex 164.16708376499403 126.65233254550976 24.596815006740687
  endloop
endfacet
facet normal -1.5215897145280826e-30 -0.9238795302735239 0.38268343776752717
  outer loop
    vertex 168.16708376499403 126.75223296357717 23.83799596105399
    vertex 164.16708376499403 126.65233253966223 23.596815006740684
    vertex 168.16708376499403 126.65233253966223 23.596815006740684
  endloop
endfacet
facet normal -1.5215897145280826e-30 -0.9238795302735239 0.38268343776752717
  outer loop
    vertex 164.16708376499403 126.65233253966223 23.596815006740684
    vertex 168.16708376499403 126.75223296357717 23.83799596105399
    vertex 164.16708376499403 126.75223296357717 23.83799596105399
  endloop
endfacet
facet normal 1.217271771622478e-29 -0.3826834377675309 -0.9238795302735224
  outer loop
    vertex 168.16708376499403 126.28630714386568 24.96284041266548
    vertex 164.16708376499403 126.04512618955239 25.062740836580428
    vertex 164.16708376499403 126.28630714386568 24.96284041266548
  endloop
endfacet
facet normal 1.217271771622478e-29 -0.3826834377675309 -0.9238795302735224
  outer loop
    vertex 164.16708376499403 126.04512618955239 25.062740836580428
    vertex 168.16708376499403 126.28630714386568 24.96284041266548
    vertex 168.16708376499403 126.04512618955239 25.062740836580428
  endloop
endfacet
facet normal 0.0 -0.9914448621370696 -0.13052618642252206
  outer loop
    vertex 168.16708376499403 126.7522329666041 24.355634051259035
    vertex 164.16708376499403 126.78630713880158 24.096815005957264
    vertex 168.16708376499403 126.78630713880158 24.096815005957264
  endloop
endfacet
facet normal 0.0 -0.9914448621370696 -0.13052618642252206
  outer loop
    vertex 164.16708376499403 126.78630713880158 24.096815005957264
    vertex 168.16708376499403 126.7522329666041 24.355634051259035
    vertex 164.16708376499403 126.7522329666041 24.355634051259035
  endloop
endfacet
facet normal -1.7341808440116136e-18 0.7933533438510254 0.6087614243695117
  outer loop
    vertex 164.16708376499403 124.92028173209336 23.59681501686895
    vertex 168.16708376499403 125.07920035348016 23.389708234753112
    vertex 164.16708376499403 125.07920035348016 23.389708234753112
  endloop
endfacet
facet normal -1.7341808440116136e-18 0.7933533438510254 0.6087614243695117
  outer loop
    vertex 168.16708376499403 125.07920035348016 23.389708234753112
    vertex 164.16708376499403 124.92028173209336 23.59681501686895
    vertex 168.16708376499403 124.92028173209336 23.59681501686895
  endloop
endfacet
facet normal -1.7341808284466574e-18 0.793353336731474 -0.6087614336478917
  outer loop
    vertex 164.16708376499403 125.07920036174986 24.803921797126208
    vertex 168.16708376499403 124.9202817379409 24.596815016868945
    vertex 164.16708376499403 124.9202817379409 24.596815016868945
  endloop
endfacet
facet normal -1.7341808284466574e-18 0.793353336731474 -0.6087614336478917
  outer loop
    vertex 168.16708376499403 124.9202817379409 24.596815016868945
    vertex 164.16708376499403 125.07920036174986 24.803921797126208
    vertex 168.16708376499403 125.07920036174986 24.803921797126208
  endloop
endfacet
facet normal 0.0 0.9914448621370696 0.13052618642252206
  outer loop
    vertex 164.16708376499403 124.78630713880155 24.096815017652368
    vertex 168.16708376499403 124.82038131099903 23.837995972350598
    vertex 164.16708376499403 124.82038131099903 23.837995972350598
  endloop
endfacet
facet normal 0.0 0.9914448621370696 0.13052618642252206
  outer loop
    vertex 168.16708376499403 124.82038131099903 23.837995972350598
    vertex 164.16708376499403 124.78630713880155 24.096815017652368
    vertex 168.16708376499403 124.78630713880155 24.096815017652368
  endloop
endfacet
facet normal 0.0 0.1305261864225165 -0.9914448621370705
  outer loop
    vertex 168.16708376499403 125.78630714464913 25.096815011804818
    vertex 164.16708376499403 125.52748809934734 25.062740839607343
    vertex 164.16708376499403 125.78630714464913 25.096815011804818
  endloop
endfacet
facet normal 0.0 0.1305261864225165 -0.9914448621370705
  outer loop
    vertex 164.16708376499403 125.52748809934734 25.062740839607343
    vertex 168.16708376499403 125.78630714464913 25.096815011804818
    vertex 168.16708376499403 125.52748809934734 25.062740839607343
  endloop
endfacet
facet normal -1.0097481759087506e-18 0.38268343776752173 0.9238795302735262
  outer loop
    vertex 168.16708376499403 125.28630713373744 23.230789610944154
    vertex 164.16708376499403 125.52748808805073 23.130889187029208
    vertex 164.16708376499403 125.28630713373744 23.230789610944154
  endloop
endfacet
facet normal -1.0097481759087506e-18 0.38268343776752173 0.9238795302735262
  outer loop
    vertex 164.16708376499403 125.52748808805073 23.130889187029208
    vertex 168.16708376499403 125.28630713373744 23.230789610944154
    vertex 168.16708376499403 125.52748808805073 23.130889187029208
  endloop
endfacet
facet normal -2.853155331106674e-19 0.9914448606105455 -0.13052619801762472
  outer loop
    vertex 164.16708376499403 124.82038131402595 24.355634062555637
    vertex 168.16708376499403 124.78630713880155 24.096815017652368
    vertex 164.16708376499403 124.78630713880155 24.096815017652368
  endloop
endfacet
facet normal -2.853155331106674e-19 0.9914448606105455 -0.13052619801762472
  outer loop
    vertex 168.16708376499403 124.78630713880155 24.096815017652368
    vertex 164.16708376499403 124.82038131402595 24.355634062555637
    vertex 168.16708376499403 124.82038131402595 24.355634062555637
  endloop
endfacet
facet normal -4.15188745117657e-30 -0.13052619801758503 -0.9914448606105507
  outer loop
    vertex 168.16708376499403 126.04512618955239 25.062740836580428
    vertex 164.16708376499403 125.78630714464913 25.096815011804818
    vertex 164.16708376499403 126.04512618955239 25.062740836580428
  endloop
endfacet
facet normal -4.15188745117657e-30 -0.13052619801758503 -0.9914448606105507
  outer loop
    vertex 164.16708376499403 125.78630714464913 25.096815011804818
    vertex 168.16708376499403 126.04512618955239 25.062740836580428
    vertex 168.16708376499403 125.78630714464913 25.096815011804818
  endloop
endfacet
facet normal -1.3306837678142657e-18 -0.6087614336478814 -0.7933533367314821
  outer loop
    vertex 168.16708376499403 126.49341392412296 24.80392178885652
    vertex 164.16708376499403 126.28630714386568 24.96284041266548
    vertex 164.16708376499403 126.49341392412296 24.80392178885652
  endloop
endfacet
facet normal -1.3306837678142657e-18 -0.6087614336478814 -0.7933533367314821
  outer loop
    vertex 164.16708376499403 126.28630714386568 24.96284041266548
    vertex 168.16708376499403 126.49341392412296 24.80392178885652
    vertex 168.16708376499403 126.28630714386568 24.96284041266548
  endloop
endfacet
facet normal 1.7341808284490694e-18 -0.79335333673147 0.6087614336478969
  outer loop
    vertex 168.16708376499403 126.65233253966223 23.596815006740684
    vertex 164.16708376499403 126.49341391585327 23.389708226483425
    vertex 168.16708376499403 126.49341391585327 23.389708226483425
  endloop
endfacet
facet normal 1.7341808284490694e-18 -0.79335333673147 0.6087614336478969
  outer loop
    vertex 164.16708376499403 126.49341391585327 23.389708226483425
    vertex 168.16708376499403 126.65233253966223 23.596815006740684
    vertex 164.16708376499403 126.65233253966223 23.596815006740684
  endloop
endfacet
facet normal -2.2518453669276525e-29 -0.6087614243695508 0.7933533438509953
  outer loop
    vertex 168.16708376499403 126.28630713373744 23.2307896050966
    vertex 164.16708376499403 126.49341391585327 23.389708226483425
    vertex 164.16708376499403 126.28630713373744 23.2307896050966
  endloop
endfacet
facet normal -2.2518453669276525e-29 -0.6087614243695508 0.7933533438509953
  outer loop
    vertex 164.16708376499403 126.49341391585327 23.389708226483425
    vertex 168.16708376499403 126.28630713373744 23.2307896050966
    vertex 168.16708376499403 126.49341391585327 23.389708226483425
  endloop
endfacet
facet normal 0.0 -0.1305261864225165 0.9914448621370705
  outer loop
    vertex 168.16708376499403 125.786307132954 23.096815011804814
    vertex 164.16708376499403 126.04512617825579 23.13088918400229
    vertex 164.16708376499403 125.786307132954 23.096815011804814
  endloop
endfacet
facet normal 0.0 -0.1305261864225165 0.9914448621370705
  outer loop
    vertex 164.16708376499403 126.04512617825579 23.13088918400229
    vertex 168.16708376499403 125.786307132954 23.096815011804814
    vertex 168.16708376499403 126.04512617825579 23.13088918400229
  endloop
endfacet
facet normal 3.0648645962893337e-18 0.608761433647888 0.7933533367314768
  outer loop
    vertex 168.16708376499403 125.07920035348016 23.389708234753112
    vertex 164.16708376499403 125.28630713373744 23.230789610944154
    vertex 164.16708376499403 125.07920035348016 23.389708234753112
  endloop
endfacet
facet normal 3.0648645962893337e-18 0.608761433647888 0.7933533367314768
  outer loop
    vertex 164.16708376499403 125.28630713373744 23.230789610944154
    vertex 168.16708376499403 125.07920035348016 23.389708234753112
    vertex 168.16708376499403 125.28630713373744 23.230789610944154
  endloop
endfacet
facet normal -3.090912952932448e-29 0.9238795347490254 0.38268342696271085
  outer loop
    vertex 164.16708376499403 124.82038131099903 23.837995972350598
    vertex 168.16708376499403 124.92028173209336 23.59681501686895
    vertex 164.16708376499403 124.92028173209336 23.59681501686895
  endloop
endfacet
facet normal -3.090912952932448e-29 0.9238795347490254 0.38268342696271085
  outer loop
    vertex 168.16708376499403 124.92028173209336 23.59681501686895
    vertex 164.16708376499403 124.82038131099903 23.837995972350598
    vertex 168.16708376499403 124.82038131099903 23.837995972350598
  endloop
endfacet
facet normal 4.151887451176569e-30 0.13052619801758503 0.9914448606105507
  outer loop
    vertex 168.16708376499403 125.52748808805073 23.130889187029208
    vertex 164.16708376499403 125.786307132954 23.096815011804814
    vertex 164.16708376499403 125.52748808805073 23.130889187029208
  endloop
endfacet
facet normal 4.151887451176569e-30 0.13052619801758503 0.9914448606105507
  outer loop
    vertex 164.16708376499403 125.786307132954 23.096815011804814
    vertex 168.16708376499403 125.52748808805073 23.130889187029208
    vertex 168.16708376499403 125.786307132954 23.096815011804814
  endloop
endfacet
facet normal -1.3577393999011914e-16 -0.2425356250363343 -0.9701425001453318
  outer loop
    vertex 164.16708376499403 123.68630713880155 22.096815011804818
    vertex 168.167083764994 121.68630713880155 22.596815011804818
    vertex 164.167083764994 121.68630713880155 22.596815011804818
  endloop
endfacet
facet normal -1.3577393999011914e-16 -0.2425356250363343 -0.9701425001453318
  outer loop
    vertex 168.167083764994 121.68630713880155 22.596815011804818
    vertex 164.16708376499403 123.68630713880155 22.096815011804818
    vertex 168.16708376499403 123.68630713880155 22.096815011804818
  endloop
endfacet
facet normal 0.0 0.0 -1.0
  outer loop
    vertex 168.16708376499403 125.78630712710645 22.096815011804818
    vertex 164.16708376499403 123.68630713880155 22.096815011804818
    vertex 164.16708376499403 125.78630712710645 22.096815011804818
  endloop
endfacet
facet normal 0.0 0.0 -1.0
  outer loop
    vertex 164.16708376499403 123.68630713880155 22.096815011804818
    vertex 168.16708376499403 125.78630712710645 22.096815011804818
    vertex 168.16708376499403 123.68630713880155 22.096815011804818
  endloop
endfacet
facet normal -5.417966348584617e-19 0.1305261864225274 -0.991444862137069
  outer loop
    vertex 168.16708376499403 126.30394521771 22.164963356199767
    vertex 164.16708376499403 125.78630712710645 22.096815011804818
    vertex 164.16708376499403 126.30394521771 22.164963356199767
  endloop
endfacet
facet normal -5.417966348584617e-19 0.1305261864225274 -0.991444862137069
  outer loop
    vertex 164.16708376499403 125.78630712710645 22.096815011804818
    vertex 168.16708376499403 126.30394521771 22.164963356199767
    vertex 168.16708376499403 125.78630712710645 22.096815011804818
  endloop
endfacet
facet normal 2.019496361579807e-18 0.3826834269626639 -0.9238795347490447
  outer loop
    vertex 168.16708376499403 126.78630712867329 22.36476419838839
    vertex 164.16708376499403 126.30394521771 22.164963356199767
    vertex 164.16708376499403 126.78630712867329 22.36476419838839
  endloop
endfacet
facet normal 2.019496361579807e-18 0.3826834269626639 -0.9238795347490447
  outer loop
    vertex 164.16708376499403 126.30394521771 22.164963356199767
    vertex 168.16708376499403 126.78630712867329 22.36476419838839
    vertex 168.16708376499403 126.30394521771 22.164963356199767
  endloop
endfacet
facet normal -1.936399709014515e-29 0.6087614243695301 -0.7933533438510114
  outer loop
    vertex 168.16708376499403 127.20052069290497 22.68260144116204
    vertex 164.16708376499403 126.78630712867329 22.36476419838839
    vertex 164.16708376499403 127.20052069290497 22.68260144116204
  endloop
endfacet
facet normal -1.936399709014515e-29 0.6087614243695301 -0.7933533438510114
  outer loop
    vertex 164.16708376499403 126.78630712867329 22.36476419838839
    vertex 168.16708376499403 127.20052069290497 22.68260144116204
    vertex 168.16708376499403 126.78630712867329 22.36476419838839
  endloop
endfacet
facet normal 3.4683616569162118e-18 0.7933533367314929 -0.6087614336478673
  outer loop
    vertex 164.16708376499403 127.51835794052286 23.096815001676564
    vertex 168.16708376499403 127.20052069290497 22.68260144116204
    vertex 164.16708376499403 127.20052069290497 22.68260144116204
  endloop
endfacet
facet normal 3.4683616569162118e-18 0.7933533367314929 -0.6087614336478673
  outer loop
    vertex 168.16708376499403 127.20052069290497 22.68260144116204
    vertex 164.16708376499403 127.51835794052286 23.096815001676564
    vertex 168.16708376499403 127.51835794052286 23.096815001676564
  endloop
endfacet
facet normal 2.938753971539648e-29 0.9238795302735088 -0.382683437767564
  outer loop
    vertex 164.16708376499403 127.71815878835278 23.579176910303175
    vertex 168.16708376499403 127.51835794052286 23.096815001676564
    vertex 164.16708376499403 127.51835794052286 23.096815001676564
  endloop
endfacet
facet normal 2.938753971539648e-29 0.9238795302735088 -0.382683437767564
  outer loop
    vertex 168.16708376499403 127.51835794052286 23.096815001676564
    vertex 164.16708376499403 127.71815878835278 23.579176910303175
    vertex 168.16708376499403 127.71815878835278 23.579176910303175
  endloop
endfacet
facet normal 0.0 0.9914448606105567 -0.13052619801753979
  outer loop
    vertex 164.16708376499403 127.78630713880155 24.096815000109714
    vertex 168.16708376499403 127.71815878835278 23.579176910303175
    vertex 164.16708376499403 127.71815878835278 23.579176910303175
  endloop
endfacet
facet normal 0.0 0.9914448606105567 -0.13052619801753979
  outer loop
    vertex 168.16708376499403 127.71815878835278 23.579176910303175
    vertex 164.16708376499403 127.78630713880155 24.096815000109714
    vertex 168.16708376499403 127.78630713880155 24.096815000109714
  endloop
endfacet
facet normal 0.0 0.9914448621370696 0.13052618642252206
  outer loop
    vertex 164.16708376499403 127.7181587944066 24.61445309071326
    vertex 168.16708376499403 127.78630713880155 24.096815000109714
    vertex 164.16708376499403 127.78630713880155 24.096815000109714
  endloop
endfacet
facet normal 0.0 0.9914448621370696 0.13052618642252206
  outer loop
    vertex 168.16708376499403 127.78630713880155 24.096815000109714
    vertex 164.16708376499403 127.7181587944066 24.61445309071326
    vertex 168.16708376499403 127.7181587944066 24.61445309071326
  endloop
endfacet
facet normal 2.938753985775797e-29 0.9238795347490408 0.38268342696267393
  outer loop
    vertex 164.16708376499403 127.51835795221797 25.09681500167656
    vertex 168.16708376499403 127.7181587944066 24.61445309071326
    vertex 164.16708376499403 127.7181587944066 24.61445309071326
  endloop
endfacet
facet normal 2.938753985775797e-29 0.9238795347490408 0.38268342696267393
  outer loop
    vertex 168.16708376499403 127.7181587944066 24.61445309071326
    vertex 164.16708376499403 127.51835795221797 25.09681500167656
    vertex 168.16708376499403 127.51835795221797 25.09681500167656
  endloop
endfacet
facet normal 2.6613674951272913e-18 0.7933533438509986 0.6087614243695467
  outer loop
    vertex 164.16708376499403 127.20052070944432 25.51102856590822
    vertex 168.16708376499403 127.51835795221797 25.09681500167656
    vertex 164.16708376499403 127.51835795221797 25.09681500167656
  endloop
endfacet
facet normal 2.6613674951272913e-18 0.7933533438509986 0.6087614243695467
  outer loop
    vertex 168.16708376499403 127.51835795221797 25.09681500167656
    vertex 164.16708376499403 127.20052070944432 25.51102856590822
    vertex 168.16708376499403 127.20052070944432 25.51102856590822
  endloop
endfacet
facet normal 3.4683616569694006e-18 0.6087614336479089 0.7933533367314607
  outer loop
    vertex 168.16708376499403 126.78630714892981 25.828865813526143
    vertex 164.16708376499403 127.20052070944432 25.51102856590822
    vertex 164.16708376499403 126.78630714892981 25.828865813526143
  endloop
endfacet
facet normal 3.4683616569694006e-18 0.6087614336479089 0.7933533367314607
  outer loop
    vertex 164.16708376499403 127.20052070944432 25.51102856590822
    vertex 168.16708376499403 126.78630714892981 25.828865813526143
    vertex 168.16708376499403 127.20052070944432 25.51102856590822
  endloop
endfacet
facet normal 0.0 0.382683437767531 0.9238795302735224
  outer loop
    vertex 168.16708376499403 126.30394524030321 26.028666661356038
    vertex 164.16708376499403 126.78630714892981 25.828865813526143
    vertex 164.16708376499403 126.30394524030321 26.028666661356038
  endloop
endfacet
facet normal 0.0 0.382683437767531 0.9238795302735224
  outer loop
    vertex 164.16708376499403 126.78630714892981 25.828865813526143
    vertex 168.16708376499403 126.30394524030321 26.028666661356038
    vertex 168.16708376499403 126.78630714892981 25.828865813526143
  endloop
endfacet
facet normal 1.2036066140629421e-29 0.13052619801756882 0.9914448606105527
  outer loop
    vertex 168.16708376499403 125.78630715049665 26.096815011804814
    vertex 164.16708376499403 126.30394524030321 26.028666661356038
    vertex 164.16708376499403 125.78630715049665 26.096815011804814
  endloop
endfacet
facet normal 1.2036066140629421e-29 0.13052619801756882 0.9914448606105527
  outer loop
    vertex 164.16708376499403 126.30394524030321 26.028666661356038
    vertex 168.16708376499403 125.78630715049665 26.096815011804814
    vertex 168.16708376499403 126.30394524030321 26.028666661356038
  endloop
endfacet
facet normal 0.0 0.0 1.0
  outer loop
    vertex 168.16708376499403 123.68630713880155 26.096815011804814
    vertex 164.16708376499403 125.78630715049665 26.096815011804814
    vertex 164.16708376499403 123.68630713880155 26.096815011804814
  endloop
endfacet
facet normal 0.0 0.0 1.0
  outer loop
    vertex 164.16708376499403 125.78630715049665 26.096815011804814
    vertex 168.16708376499403 123.68630713880155 26.096815011804814
    vertex 168.16708376499403 125.78630715049665 26.096815011804814
  endloop
endfacet
facet normal 0.0 1.0 0.0
  outer loop
    vertex 160.61708376499405 123.68630713880155 31.852789011804816
    vertex 164.16708376499403 123.68630713880155 22.596815011804818
    vertex 160.61708376499405 123.68630713880155 22.596815011804818
  endloop
endfacet
facet normal 0.0 1.0 0.0
  outer loop
    vertex 164.16708376499403 123.68630713880155 22.596815011804818
    vertex 160.61708376499405 123.68630713880155 31.852789011804816
    vertex 164.16708376499403 123.68630713880155 26.096815011804814
  endloop
endfacet
facet normal 0.0 1.0 0.0
  outer loop
    vertex 164.16708376499403 123.68630713880155 26.096815011804814
    vertex 160.61708376499405 123.68630713880155 31.852789011804816
    vertex 168.16708376499403 123.68630713880155 26.096815011804814
  endloop
endfacet
facet normal 0.0 1.0 0.0
  outer loop
    vertex 168.16708376499403 123.68630713880155 26.096815011804814
    vertex 171.717083764994 123.68630713880155 22.596815011804818
    vertex 168.167083764994 123.68630713880155 22.596815011804818
  endloop
endfacet
facet normal 0.0 1.0 0.0
  outer loop
    vertex 171.717083764994 123.68630713880155 22.596815011804818
    vertex 168.16708376499403 123.68630713880155 26.096815011804814
    vertex 171.717083764994 123.68630713880155 31.852789011804816
  endloop
endfacet
facet normal 0.0 1.0 0.0
  outer loop
    vertex 171.717083764994 123.68630713880155 31.852789011804816
    vertex 168.16708376499403 123.68630713880155 26.096815011804814
    vertex 160.61708376499405 123.68630713880155 31.852789011804816
  endloop
endfacet
facet normal -1.9733252753164398e-16 -5.750321953269448e-16 -1.0
  outer loop
    vertex 171.717083764994 123.68630713880155 22.596815011804818
    vertex 168.167083764994 121.68630713880155 22.596815011804818
    vertex 168.167083764994 123.68630713880155 22.596815011804818
  endloop
endfacet
facet normal -1.9733252753164398e-16 -5.750321953269448e-16 -1.0
  outer loop
    vertex 168.167083764994 121.68630713880155 22.596815011804818
    vertex 171.717083764994 123.68630713880155 22.596815011804818
    vertex 170.717083764994 121.68630713880155 22.596815011804818
  endloop
endfacet
facet normal -1.9733252753164398e-16 -5.750321953269448e-16 -1.0
  outer loop
    vertex 170.717083764994 121.68630713880155 22.596815011804818
    vertex 171.717083764994 123.68630713880155 22.596815011804818
    vertex 170.717083764994 118.68630713880157 22.596815011804818
  endloop
endfacet
facet normal -1.9733252753164398e-16 -5.750321953269448e-16 -1.0
  outer loop
    vertex 170.717083764994 118.68630713880157 22.596815011804818
    vertex 171.717083764994 123.68630713880155 22.596815011804818
    vertex 171.717083764994 118.68630713880157 22.596815011804818
  endloop
endfacet
facet normal -1.0 1.821328541817627e-15 2.8471109488947013e-16
  outer loop
    vertex 164.16708376499403 125.78630715049665 26.096815011804814
    vertex 164.16708376499403 123.68630713880155 22.596815011804818
    vertex 164.16708376499403 123.68630713880155 26.096815011804814
  endloop
endfacet
facet normal -1.0 1.821328541817627e-15 2.8471109488947013e-16
  outer loop
    vertex 164.16708376499403 123.68630713880155 22.596815011804818
    vertex 164.16708376499403 125.78630715049665 26.096815011804814
    vertex 164.16708376499403 124.9202817379409 24.596815016868945
  endloop
endfacet
facet normal -1.0 1.821328541817627e-15 2.8471109488947013e-16
  outer loop
    vertex 164.16708376499403 123.68630713880155 22.596815011804818
    vertex 164.16708376499403 124.9202817379409 24.596815016868945
    vertex 164.16708376499403 123.68630713880155 22.096815011804818
  endloop
endfacet
facet normal -1.0 1.821328541817627e-15 2.8471109488947013e-16
  outer loop
    vertex 164.16708376499403 123.68630713880155 22.096815011804818
    vertex 164.16708376499403 124.9202817379409 24.596815016868945
    vertex 164.16708376499403 124.82038131402595 24.355634062555637
  endloop
endfacet
facet normal -1.0 1.821328541817627e-15 2.8471109488947013e-16
  outer loop
    vertex 164.16708376499403 123.68630713880155 22.096815011804818
    vertex 164.16708376499403 124.82038131402595 24.355634062555637
    vertex 164.16708376499403 124.78630713880155 24.096815017652368
  endloop
endfacet
facet normal -1.0 1.821328541817627e-15 2.8471109488947013e-16
  outer loop
    vertex 164.16708376499403 124.9202817379409 24.596815016868945
    vertex 164.16708376499403 125.78630715049665 26.096815011804814
    vertex 164.16708376499403 125.07920036174986 24.803921797126208
  endloop
endfacet
facet normal -1.0 1.821328541817627e-15 2.8471109488947013e-16
  outer loop
    vertex 164.16708376499403 125.07920036174986 24.803921797126208
    vertex 164.16708376499403 125.78630715049665 26.096815011804814
    vertex 164.16708376499403 125.2863071438657 24.962840418513032
  endloop
endfacet
facet normal -1.0 1.821328541817627e-15 2.8471109488947013e-16
  outer loop
    vertex 164.16708376499403 125.2863071438657 24.962840418513032
    vertex 164.16708376499403 125.78630715049665 26.096815011804814
    vertex 164.16708376499403 125.52748809934734 25.062740839607343
  endloop
endfacet
facet normal -1.0 1.821328541817627e-15 2.8471109488947013e-16
  outer loop
    vertex 164.16708376499403 125.52748809934734 25.062740839607343
    vertex 164.16708376499403 125.78630715049665 26.096815011804814
    vertex 164.16708376499403 125.78630714464913 25.096815011804818
  endloop
endfacet
facet normal -1.0 1.821328541817627e-15 2.8471109488947013e-16
  outer loop
    vertex 164.16708376499403 125.78630714464913 25.096815011804818
    vertex 164.16708376499403 125.78630715049665 26.096815011804814
    vertex 164.16708376499403 126.04512618955239 25.062740836580428
  endloop
endfacet
facet normal -1.0 1.821328541817627e-15 2.8471109488947013e-16
  outer loop
    vertex 164.16708376499403 126.04512618955239 25.062740836580428
    vertex 164.16708376499403 125.78630715049665 26.096815011804814
    vertex 164.16708376499403 126.30394524030321 26.028666661356038
  endloop
endfacet
facet normal -1.0 1.821328541817627e-15 2.8471109488947013e-16
  outer loop
    vertex 164.16708376499403 126.04512618955239 25.062740836580428
    vertex 164.16708376499403 126.30394524030321 26.028666661356038
    vertex 164.16708376499403 126.28630714386568 24.96284041266548
  endloop
endfacet
facet normal -1.0 1.821328541817627e-15 2.8471109488947013e-16
  outer loop
    vertex 164.16708376499403 126.28630714386568 24.96284041266548
    vertex 164.16708376499403 126.30394524030321 26.028666661356038
    vertex 164.16708376499403 126.49341392412296 24.80392178885652
  endloop
endfacet
facet normal -1.0 1.821328541817627e-15 2.8471109488947013e-16
  outer loop
    vertex 164.16708376499403 126.49341392412296 24.80392178885652
    vertex 164.16708376499403 126.30394524030321 26.028666661356038
    vertex 164.16708376499403 126.78630714892981 25.828865813526143
  endloop
endfacet
facet normal -1.0 1.821328541817627e-15 2.8471109488947013e-16
  outer loop
    vertex 164.16708376499403 126.49341392412296 24.80392178885652
    vertex 164.16708376499403 126.78630714892981 25.828865813526143
    vertex 164.16708376499403 126.65233254550976 24.596815006740687
  endloop
endfacet
facet normal -1.0 1.821328541817627e-15 2.8471109488947013e-16
  outer loop
    vertex 164.16708376499403 126.65233254550976 24.596815006740687
    vertex 164.16708376499403 126.78630714892981 25.828865813526143
    vertex 164.16708376499403 126.7522329666041 24.355634051259035
  endloop
endfacet
facet normal -1.0 1.821328541817627e-15 2.8471109488947013e-16
  outer loop
    vertex 164.16708376499403 126.7522329666041 24.355634051259035
    vertex 164.16708376499403 126.78630714892981 25.828865813526143
    vertex 164.16708376499403 126.78630713880158 24.096815005957264
  endloop
endfacet
facet normal -1.0 1.821328541817627e-15 2.8471109488947013e-16
  outer loop
    vertex 164.16708376499403 123.68630713880155 22.096815011804818
    vertex 164.16708376499403 124.92028173209336 23.59681501686895
    vertex 164.16708376499403 125.78630712710645 22.096815011804818
  endloop
endfacet
facet normal -1.0 1.821328541817627e-15 2.8471109488947013e-16
  outer loop
    vertex 164.16708376499403 124.92028173209336 23.59681501686895
    vertex 164.16708376499403 123.68630713880155 22.096815011804818
    vertex 164.16708376499403 124.82038131099903 23.837995972350598
  endloop
endfacet
facet normal -1.0 1.821328541817627e-15 2.8471109488947013e-16
  outer loop
    vertex 164.16708376499403 124.82038131099903 23.837995972350598
    vertex 164.16708376499403 123.68630713880155 22.096815011804818
    vertex 164.16708376499403 124.78630713880155 24.096815017652368
  endloop
endfacet
facet normal -1.0 1.821328541817627e-15 2.8471109488947013e-16
  outer loop
    vertex 164.16708376499403 125.78630712710645 22.096815011804818
    vertex 164.16708376499403 124.92028173209336 23.59681501686895
    vertex 164.16708376499403 125.07920035348016 23.389708234753112
  endloop
endfacet
facet normal -1.0 1.821328541817627e-15 2.8471109488947013e-16
  outer loop
    vertex 164.16708376499403 125.78630712710645 22.096815011804818
    vertex 164.16708376499403 125.07920035348016 23.389708234753112
    vertex 164.16708376499403 125.28630713373744 23.230789610944154
  endloop
endfacet
facet normal -1.0 1.821328541817627e-15 2.8471109488947013e-16
  outer loop
    vertex 164.16708376499403 125.78630712710645 22.096815011804818
    vertex 164.16708376499403 125.28630713373744 23.230789610944154
    vertex 164.16708376499403 125.52748808805073 23.130889187029208
  endloop
endfacet
facet normal -1.0 1.821328541817627e-15 2.8471109488947013e-16
  outer loop
    vertex 164.16708376499403 125.78630712710645 22.096815011804818
    vertex 164.16708376499403 125.52748808805073 23.130889187029208
    vertex 164.16708376499403 125.786307132954 23.096815011804814
  endloop
endfacet
facet normal -1.0 1.821328541817627e-15 2.8471109488947013e-16
  outer loop
    vertex 164.16708376499403 125.78630712710645 22.096815011804818
    vertex 164.16708376499403 125.786307132954 23.096815011804814
    vertex 164.16708376499403 126.30394521771 22.164963356199767
  endloop
endfacet
facet normal -1.0 1.821328541817627e-15 2.8471109488947013e-16
  outer loop
    vertex 164.16708376499403 126.30394521771 22.164963356199767
    vertex 164.16708376499403 125.786307132954 23.096815011804814
    vertex 164.16708376499403 126.04512617825579 23.13088918400229
  endloop
endfacet
facet normal -1.0 1.821328541817627e-15 2.8471109488947013e-16
  outer loop
    vertex 164.16708376499403 126.30394521771 22.164963356199767
    vertex 164.16708376499403 126.04512617825579 23.13088918400229
    vertex 164.16708376499403 126.28630713373744 23.2307896050966
  endloop
endfacet
facet normal -1.0 1.821328541817627e-15 2.8471109488947013e-16
  outer loop
    vertex 164.16708376499403 126.30394521771 22.164963356199767
    vertex 164.16708376499403 126.28630713373744 23.2307896050966
    vertex 164.16708376499403 126.49341391585327 23.389708226483425
  endloop
endfacet
facet normal -1.0 1.821328541817627e-15 2.8471109488947013e-16
  outer loop
    vertex 164.16708376499403 126.30394521771 22.164963356199767
    vertex 164.16708376499403 126.49341391585327 23.389708226483425
    vertex 164.16708376499403 126.78630712867329 22.36476419838839
  endloop
endfacet
facet normal -1.0 1.821328541817627e-15 2.8471109488947013e-16
  outer loop
    vertex 164.16708376499403 126.78630712867329 22.36476419838839
    vertex 164.16708376499403 126.49341391585327 23.389708226483425
    vertex 164.16708376499403 126.65233253966223 23.596815006740684
  endloop
endfacet
facet normal -1.0 1.821328541817627e-15 2.8471109488947013e-16
  outer loop
    vertex 164.16708376499403 126.78630712867329 22.36476419838839
    vertex 164.16708376499403 126.65233253966223 23.596815006740684
    vertex 164.16708376499403 126.75223296357717 23.83799596105399
  endloop
endfacet
facet normal -1.0 1.821328541817627e-15 2.8471109488947013e-16
  outer loop
    vertex 164.16708376499403 126.78630712867329 22.36476419838839
    vertex 164.16708376499403 126.75223296357717 23.83799596105399
    vertex 164.16708376499403 126.78630713880158 24.096815005957264
  endloop
endfacet
facet normal -1.0 1.821328541817627e-15 2.8471109488947013e-16
  outer loop
    vertex 164.16708376499403 126.78630712867329 22.36476419838839
    vertex 164.16708376499403 126.78630713880158 24.096815005957264
    vertex 164.16708376499403 127.20052069290497 22.68260144116204
  endloop
endfacet
facet normal -1.0 1.821328541817627e-15 2.8471109488947013e-16
  outer loop
    vertex 164.16708376499403 127.20052069290497 22.68260144116204
    vertex 164.16708376499403 126.78630713880158 24.096815005957264
    vertex 164.16708376499403 126.78630714892981 25.828865813526143
  endloop
endfacet
facet normal -1.0 1.821328541817627e-15 2.8471109488947013e-16
  outer loop
    vertex 164.16708376499403 127.20052069290497 22.68260144116204
    vertex 164.16708376499403 126.78630714892981 25.828865813526143
    vertex 164.16708376499403 127.20052070944432 25.51102856590822
  endloop
endfacet
facet normal -1.0 1.821328541817627e-15 2.8471109488947013e-16
  outer loop
    vertex 164.16708376499403 127.20052069290497 22.68260144116204
    vertex 164.16708376499403 127.20052070944432 25.51102856590822
    vertex 164.16708376499403 127.51835794052286 23.096815001676564
  endloop
endfacet
facet normal -1.0 1.821328541817627e-15 2.8471109488947013e-16
  outer loop
    vertex 164.16708376499403 127.51835794052286 23.096815001676564
    vertex 164.16708376499403 127.20052070944432 25.51102856590822
    vertex 164.16708376499403 127.51835795221797 25.09681500167656
  endloop
endfacet
facet normal -1.0 1.821328541817627e-15 2.8471109488947013e-16
  outer loop
    vertex 164.16708376499403 127.51835794052286 23.096815001676564
    vertex 164.16708376499403 127.51835795221797 25.09681500167656
    vertex 164.16708376499403 127.71815878835278 23.579176910303175
  endloop
endfacet
facet normal -1.0 1.821328541817627e-15 2.8471109488947013e-16
  outer loop
    vertex 164.16708376499403 127.71815878835278 23.579176910303175
    vertex 164.16708376499403 127.51835795221797 25.09681500167656
    vertex 164.16708376499403 127.7181587944066 24.61445309071326
  endloop
endfacet
facet normal -1.0 1.821328541817627e-15 2.8471109488947013e-16
  outer loop
    vertex 164.16708376499403 127.71815878835278 23.579176910303175
    vertex 164.16708376499403 127.7181587944066 24.61445309071326
    vertex 164.16708376499403 127.78630713880155 24.096815000109714
  endloop
endfacet
facet normal -1.0 1.821328541817627e-15 2.8471109488947013e-16
  outer loop
    vertex 164.16708376499403 123.68630713880155 22.096815011804818
    vertex 164.167083764994 121.68630713880155 22.596815011804818
    vertex 164.16708376499403 123.68630713880155 22.596815011804818
  endloop
endfacet
facet normal 3.484254198991061e-16 -6.546815950534128e-16 -1.0
  outer loop
    vertex 160.61708376499405 123.68630713880155 22.596815011804818
    vertex 161.61708376499405 121.68630713880155 22.596815011804818
    vertex 160.61708376499405 118.68630713880157 22.596815011804818
  endloop
endfacet
facet normal 3.484254198991061e-16 -6.546815950534128e-16 -1.0
  outer loop
    vertex 161.61708376499405 121.68630713880155 22.596815011804818
    vertex 160.61708376499405 123.68630713880155 22.596815011804818
    vertex 164.16708376499403 123.68630713880155 22.596815011804818
  endloop
endfacet
facet normal 3.484254198991061e-16 -6.546815950534128e-16 -1.0
  outer loop
    vertex 161.61708376499405 121.68630713880155 22.596815011804818
    vertex 164.16708376499403 123.68630713880155 22.596815011804818
    vertex 164.167083764994 121.68630713880155 22.596815011804818
  endloop
endfacet
facet normal 3.484254198991061e-16 -6.546815950534128e-16 -1.0
  outer loop
    vertex 161.61708376499405 118.68630713880157 22.596815011804818
    vertex 160.61708376499405 118.68630713880157 22.596815011804818
    vertex 161.61708376499405 121.68630713880155 22.596815011804818
  endloop
endfacet
endsolid chasis_bicho
